HIERARCHY
ROOT Hips
{
	OFFSET 68.796799 -2.606816 96.864403
	CHANNELS 6 Xposition Yposition Zposition Xrotation Yrotation Zrotation
	JOINT spine
	{
		OFFSET 0.000000 -0.458068 7.965683
		CHANNELS 3 Xrotation Yrotation Zrotation
		JOINT spine1
		{
			OFFSET 0.000000 -0.000002 10.243103
			CHANNELS 3 Xrotation Yrotation Zrotation
			JOINT spine2
			{
				OFFSET 0.000000 -0.000001 9.814751
				CHANNELS 3 Xrotation Yrotation Zrotation
				JOINT Neck
				{
					OFFSET 0.000000 -1.201384 25.198608
					CHANNELS 3 Xrotation Yrotation Zrotation
					JOINT Head
					{
						OFFSET 0.000000 -0.000001 7.613144
						CHANNELS 3 Xrotation Yrotation Zrotation
						End Site
						{
							OFFSET 0.000000 6.077327 18.428101
						}
					}
				}
				JOINT RightShoulder
				{
					OFFSET -4.132698 0.575449 10.599197
					CHANNELS 3 Xrotation Yrotation Zrotation
					JOINT RightArm
					{
						OFFSET 0.000000 -0.000002 13.901794
						CHANNELS 3 Xrotation Yrotation Zrotation
						JOINT RightArmRoll
						{
							OFFSET 0.000000 -0.000001 7.017883
							CHANNELS 3 Xrotation Yrotation Zrotation
							JOINT RightForeArm
							{
								OFFSET 0.000000 -0.000003 20.440598
								CHANNELS 3 Xrotation Yrotation Zrotation
								JOINT RightForeArmRoll
								{
									OFFSET 0.000000 -0.000001 7.875153
									CHANNELS 3 Xrotation Yrotation Zrotation
									JOINT RightHand
									{
										OFFSET 0.000000 -0.000003 15.803696
										CHANNELS 3 Xrotation Yrotation Zrotation
										End Site
										{
											OFFSET 0.000000 0.000000 0.100006
										}
									}
								}
							}
						}
					}
				}
				JOINT LeftShoulder
				{
					OFFSET 4.132698 0.575449 10.599197
					CHANNELS 3 Xrotation Yrotation Zrotation
					JOINT LeftArm
					{
						OFFSET 0.000000 -0.000002 13.901794
						CHANNELS 3 Xrotation Yrotation Zrotation
						JOINT LeftArmRoll
						{
							OFFSET 0.000000 -0.000001 7.017883
							CHANNELS 3 Xrotation Yrotation Zrotation
							JOINT LeftForeArm
							{
								OFFSET 0.000000 -0.000003 20.440598
								CHANNELS 3 Xrotation Yrotation Zrotation
								JOINT LeftForeArmRoll
								{
									OFFSET 0.000000 -0.000001 7.875153
									CHANNELS 3 Xrotation Yrotation Zrotation
									JOINT LeftHand
									{
										OFFSET 0.000000 -0.000003 15.803696
										CHANNELS 3 Xrotation Yrotation Zrotation
										End Site
										{
											OFFSET 0.000000 0.000000 0.100006
										}
									}
								}
							}
						}
					}
				}
			}
		}
	}
	JOINT RightUpLeg
	{
		OFFSET -7.060478 1.086100 -1.294701
		CHANNELS 3 Xrotation Yrotation Zrotation
		JOINT RightUpLegRoll
		{
			OFFSET 0.000000 -0.000003 18.530800
			CHANNELS 3 Xrotation Yrotation Zrotation
			JOINT RightLeg
			{
				OFFSET 0.000000 0.000004 -22.947601
				CHANNELS 3 Xrotation Yrotation Zrotation
				JOINT RightLegRoll
				{
					OFFSET 0.000000 -0.000004 23.022598
					CHANNELS 3 Xrotation Yrotation Zrotation
					JOINT RightFoot
					{
						OFFSET 0.000000 -0.000003 19.162498
						CHANNELS 3 Xrotation Yrotation Zrotation
						JOINT RightToeBase
						{
							OFFSET 0.000000 -0.000003 16.018799
							CHANNELS 3 Xrotation Yrotation Zrotation
							End Site
							{
								OFFSET 0.006790 0.894205 7.757828
							}
						}
					}
				}
			}
		}
	}
	JOINT LeftUpLeg
	{
		OFFSET 7.060478 1.086100 -1.294701
		CHANNELS 3 Xrotation Yrotation Zrotation
		JOINT LeftUpLegRoll
		{
			OFFSET 0.000000 -0.000003 18.530899
			CHANNELS 3 Xrotation Yrotation Zrotation
			JOINT LeftLeg
			{
				OFFSET 0.000000 -0.000004 22.947495
				CHANNELS 3 Xrotation Yrotation Zrotation
				JOINT LeftLegRoll
				{
					OFFSET 0.000000 -0.000004 23.235504
					CHANNELS 3 Xrotation Yrotation Zrotation
					JOINT LeftFoot
					{
						OFFSET 0.000000 -0.000003 18.949600
						CHANNELS 3 Xrotation Yrotation Zrotation
						JOINT LeftToeBase
						{
							OFFSET 0.000000 -0.000003 16.018799
							CHANNELS 3 Xrotation Yrotation Zrotation
							End Site
							{
								OFFSET -0.030426 0.894205 7.757828
							}
						}
					}
				}
			}
		}
	}
}
MOTION
Frames: 10
Frame Time: 0.041667
66.549797 -1.827817 92.708900 -1.806178 -4.815958 11.870012 -0.660412 0.015062 -0.166405 2.682071 0.030438 -0.332765 4.327130 0.026450 -0.333107 -1.390176 23.595413 -4.459179 13.319663 -18.716026 -4.536797 -15.387433 -24.694494 -17.183409 377.057806 -29.377757 429.113547 -0.000004 -0.000020 0.000002 35.135234 7.774983 -1.674657 -0.000004 0.000007 -3.001770 -4.999942 -7.998957 0.000010 -8.674598 41.602802 8.914313 -143.466566 168.941615 87.739374 -0.000001 -0.000000 0.000000 46.424888 -12.383795 2.875553 -0.000002 -0.000004 3.000580 -4.999604 7.998730 0.000005 -4.835011 -155.933137 3.451389 -179.999991 0.000005 -1.539998 156.885935 10.532000 0.641032 -0.000004 0.000002 -0.709630 65.848583 7.906013 0.045559 30.971872 -6.823586 5.815694 -13.174359 165.598469 1.692796 -0.000020 0.000000 -1.560541 -29.135275 -7.504309 -0.873215 -0.000005 -0.000005 -0.416879 68.516011 -7.260311 -1.249043 25.199109 7.354730 0.284088 
66.578201 -1.818985 93.053596 -1.802316 -4.883436 11.851921 -0.654291 0.020595 -0.177952 2.694331 0.041502 -0.355848 4.339401 0.037236 -0.356320 -1.936655 23.650467 -4.298932 13.771841 -18.617467 -4.451599 -15.364577 -25.149807 -17.169233 377.063598 -29.794187 429.040846 -0.000003 -0.000020 0.000005 34.978201 7.808899 -1.689913 -0.000007 0.000008 -3.001770 -4.999942 -7.998958 0.000009 -8.831447 41.823608 9.137209 -143.295784 168.222177 88.036214 -0.000000 -0.000001 0.000001 46.235074 -12.305317 2.882809 -0.000002 -0.000004 3.000590 -4.999605 7.998732 0.000005 -4.696790 -155.825083 3.617360 -179.999991 0.000004 -1.529998 157.438388 10.313856 0.584193 -0.000005 -0.000001 -0.746320 65.735093 7.926586 0.009807 30.454150 -6.919376 5.261457 -12.953627 165.688792 1.603735 -0.000019 -0.000003 -1.549340 -28.651633 -7.368750 -0.827751 -0.000005 -0.000008 -0.403272 68.516640 -7.255707 -1.260325 25.201235 7.354755 0.281737 
66.630096 -1.793346 93.373589 -1.799476 -4.951120 11.831245 -0.647472 0.026321 -0.189577 2.707981 0.052946 -0.379092 4.353052 0.048401 -0.379702 -2.501270 23.693795 -4.132585 14.238067 -18.506119 -4.364545 -15.342688 -25.611440 -17.156136 377.071603 -30.212891 428.969266 -0.000003 -0.000020 0.000004 34.825492 7.841677 -1.704926 -0.000008 0.000009 -3.001770 -4.999943 -7.998956 0.000012 -8.992178 42.034804 9.364074 -143.130111 167.491716 88.341127 -0.000000 0.000001 0.000000 46.031595 -12.226355 2.890030 -0.000002 -0.000005 3.000600 -4.999602 7.998733 0.000005 -4.563165 -155.719256 3.784386 -179.999991 0.000006 -1.519999 157.977453 10.099411 0.535140 -0.000006 0.000002 -0.769561 65.659257 7.938068 -0.015607 29.899433 -7.011059 4.669934 -12.731649 165.781354 1.516098 -0.000021 -0.000002 -1.537970 -28.170965 -7.235506 -0.785861 -0.000004 -0.000003 -0.395740 68.538565 -7.247881 -1.276595 25.215281 7.354865 0.266247 
66.630203 -1.762477 93.700310 -1.796066 -5.017848 11.807952 -0.640338 0.032001 -0.200995 2.722282 0.064287 -0.401922 4.367342 0.059468 -0.402667 -3.081700 23.726639 -3.961197 14.715385 -18.383256 -4.276637 -15.322143 -26.076921 -17.144383 377.081767 -30.634276 428.896456 -0.000003 -0.000019 0.000006 34.674210 7.872389 -1.719361 -0.000009 0.000007 -3.001769 -4.999941 -7.998959 0.000009 -9.154862 42.238320 9.592614 -142.969752 166.752744 88.653048 -0.000000 0.000001 0.000001 45.816209 -12.146557 2.896982 -0.000003 -0.000005 3.000610 -4.999605 7.998731 0.000005 -4.435999 -155.619699 3.950436 -179.999991 0.000004 -1.510000 158.502572 9.887922 0.492245 -0.000004 -0.000000 -0.781820 65.613782 7.941931 -0.032067 29.320698 -7.094852 4.054982 -12.510407 165.874313 1.429940 -0.000018 -0.000003 -1.526479 -27.692911 -7.104037 -0.746978 -0.000004 -0.000006 -0.392973 68.576704 -7.237510 -1.296826 25.238719 7.355027 0.240417 
66.670700 -1.750617 94.028297 -1.790513 -5.082492 11.782128 -0.633242 0.037391 -0.211913 2.736483 0.075047 -0.423759 4.381543 0.069967 -0.424630 -3.675575 23.749976 -3.785847 15.200651 -18.250113 -4.188935 -15.303225 -26.543954 -17.134568 377.093460 -31.058923 428.819411 -0.000000 -0.000021 0.000004 34.521497 7.900076 -1.732892 -0.000007 0.000006 -3.001779 -4.999941 -7.998956 0.000011 -9.317613 42.436611 9.820611 -142.814707 166.007775 88.970645 -0.000002 0.000001 -0.000000 45.590929 -12.065383 2.903367 -0.000002 -0.000006 3.000620 -4.999605 7.998732 0.000005 -4.317252 -155.527451 4.113187 -179.999991 0.000006 -1.501995 159.013265 9.680594 0.454704 -0.000006 0.000000 -0.785551 65.591229 7.939617 -0.040634 28.730982 -7.167950 3.430651 -12.292106 165.966794 1.345138 -0.000020 -0.000004 -1.514920 -27.217091 -6.973744 -0.710499 -0.000006 -0.000003 -0.393654 68.625916 -7.225333 -1.320095 25.269033 7.355210 0.207076 
66.675400 -1.693038 94.349197 -1.781215 -5.143910 11.753851 -0.626559 0.042255 -0.222047 2.749873 0.084749 -0.444023 4.394923 0.079424 -0.445011 -4.280581 23.765013 -3.607565 15.691272 -18.108163 -4.102153 -15.286430 -27.010253 -17.127097 377.106355 -31.487363 428.735810 -0.000002 -0.000019 0.000007 34.364652 7.923782 -1.745225 -0.000007 0.000005 -3.001780 -4.999942 -7.998958 0.000010 -9.478524 42.631722 10.045792 -142.664661 165.259337 89.292545 -0.000002 0.000000 0.000001 45.357568 -11.982428 2.908928 -0.000002 -0.000004 3.000630 -4.999604 7.998732 0.000005 -4.208813 -155.445530 4.270486 -179.999991 0.000005 -1.494004 159.508891 9.479476 0.421974 -0.000005 -0.000000 -0.783221 65.584351 7.932701 -0.042835 28.143921 -7.228594 2.811156 -12.078389 166.058906 1.261173 -0.000019 -0.000003 -1.503350 -26.743239 -6.844018 -0.675885 -0.000005 -0.000005 -0.396466 68.681199 -7.211990 -1.345559 25.303599 7.355382 0.169033 
66.721199 -1.683539 94.684303 -1.766604 -5.200973 11.722909 -0.620652 0.046351 -0.231101 2.761704 0.092912 -0.462131 4.406755 0.087370 -0.463215 -4.894408 23.772887 -3.427321 16.184024 -17.958596 -4.017239 -15.272335 -27.473370 -17.122680 377.119797 -31.919981 428.642564 -0.000003 -0.000020 0.000002 34.200827 7.942571 -1.756064 -0.000006 0.000006 -3.001781 -4.999943 -7.998956 0.000012 -9.635732 42.826014 10.265928 -142.519164 164.509997 89.617423 -0.000002 0.000001 0.000001 45.117914 -11.897089 2.913219 -0.000002 -0.000005 3.000640 -4.999605 7.998730 0.000005 -4.112680 -155.374004 4.419887 -179.999991 0.000004 -1.486996 159.989163 9.282948 0.394071 -0.000005 -0.000001 -0.777290 65.585635 7.922789 -0.039883 27.573055 -7.276099 2.210806 -11.871400 166.148709 1.178100 -0.000019 -0.000002 -1.491831 -26.270902 -6.714253 -0.642605 -0.000006 -0.000007 -0.400092 68.737364 -7.198102 -1.372278 25.339766 7.355505 0.129126 
66.737602 -1.686168 95.011292 -1.745070 -5.252540 11.689496 -0.615881 0.049437 -0.238788 2.771245 0.099063 -0.477504 4.416297 0.093338 -0.478661 -5.514743 23.774681 -3.246051 16.676149 -17.802755 -3.934883 -15.261185 -27.931024 -17.121737 377.133266 -32.357359 428.537270 -0.000003 -0.000018 0.000007 34.027214 7.955499 -1.765098 -0.000007 0.000006 -3.001780 -4.999944 -7.998957 0.000008 -9.787342 43.021671 10.478754 -142.377506 163.762378 89.943763 -0.000001 -0.000000 0.000001 44.873988 -11.808887 2.916038 -0.000003 -0.000005 3.000650 -4.999603 7.998733 0.000006 -4.030748 -155.316890 4.559281 -179.999991 0.000005 -1.480999 160.453206 9.093990 0.368799 -0.000005 -0.000001 -0.770216 65.588005 7.911242 -0.032761 27.032603 -7.310786 1.644022 -11.673177 166.234332 1.095858 -0.000020 -0.000002 -1.480400 -25.799718 -6.583828 -0.610152 -0.000005 -0.000006 -0.403223 68.789369 -7.184442 -1.399123 25.375128 7.355592 0.090154 
66.764999 -1.663385 95.331696 -1.715039 -5.297511 11.653509 -0.612628 0.051275 -0.244816 2.777765 0.102727 -0.489559 4.422826 0.096856 -0.490759 -6.139337 23.771790 -3.064621 17.164805 -17.642032 -3.855690 -15.253330 -28.380899 -17.124806 377.145861 -32.799730 428.416567 -0.000003 -0.000020 0.000006 33.841094 7.961608 -1.772071 -0.000003 0.000006 -3.001780 -4.999943 -7.998957 0.000009 -9.931498 43.221096 10.682027 -142.238990 163.019035 90.270109 -0.000002 -0.000000 0.000001 44.627401 -11.717387 2.917021 -0.000001 -0.000004 3.000659 -4.999604 7.998730 0.000005 -3.964942 -155.276209 4.686385 -179.999991 0.000004 -1.475002 160.900870 8.911911 0.345511 -0.000005 0.000000 -0.764465 65.583770 7.899833 -0.023039 26.536528 -7.333889 1.125186 -11.485501 166.316800 1.013726 -0.000021 -0.000003 -1.469121 -25.329550 -6.452066 -0.578061 -0.000005 -0.000006 -0.404540 68.832078 -7.171507 -1.425422 25.407049 7.355628 0.054947 
66.755302 -1.698750 95.653496 -1.674895 -5.334756 11.615033 -0.611247 0.051628 -0.248898 2.780535 0.103428 -0.497713 4.425586 0.097460 -0.498922 -6.765932 23.765264 -2.883836 17.647167 -17.477805 -3.780185 -15.249326 -28.820649 -17.132537 377.156762 -33.247711 428.277614 -0.000002 -0.000021 0.000006 33.639453 7.959993 -1.776690 -0.000007 0.000004 -3.001779 -4.999935 -7.998952 0.000012 -10.066350 43.426561 10.873489 -142.102605 162.282563 90.594864 0.000000 -0.000001 -0.000002 44.380233 -11.621902 2.915824 0.000000 -0.000004 3.000671 -4.999604 7.998731 0.000005 -3.917269 -155.251989 4.798770 -179.999991 0.000006 -1.470999 161.331377 8.737844 0.324254 -0.000005 0.000002 -0.762497 65.565875 7.889935 -0.011895 26.099029 -7.347400 0.668686 -11.310393 166.394173 0.931643 -0.000019 -0.000006 -1.458052 -24.859944 -6.318307 -0.545867 -0.000006 -0.000006 -0.402727 68.860437 -7.160041 -1.450039 25.433113 7.355631 0.026289 
